<svg width="274" height="320" viewBox="0 0 274 320" fill="none" xmlns="http://www.w3.org/2000/svg">
<path d="M39.1595 128.215C46.8034 125.101 50.4662 116.403 47.3405 108.788C44.2149 101.173 35.4844 97.5242 27.8405 100.638C20.1966 103.752 16.5338 112.45 19.6595 120.065C22.7851 127.68 31.5156 131.329 39.1595 128.215Z" fill="#FFD15A"/>
<path d="M46.509 122.035H20.5039L26.0002 129.759H41.0127L46.509 122.035Z" fill="#FFD15A"/>
<path d="M33.5 128.6L33.5 122.2" stroke="white" stroke-width="3" stroke-miterlimit="10" stroke-linecap="square"/>
<path d="M26.0234 129.759H40.9764V136.065C40.9764 137.613 39.7137 138.862 38.1685 138.862H28.8313C27.2778 138.862 26.0234 137.604 26.0234 136.065V129.759Z" fill="#2F83F7"/>
<path d="M33.5012 143C35.7952 143 37.6548 141.147 37.6548 138.862C37.6548 136.577 35.7952 134.724 33.5012 134.724C31.2073 134.724 29.3477 136.577 29.3477 138.862C29.3477 141.147 31.2073 143 33.5012 143Z" fill="#2F83F7"/>
<path d="M38.9591 117.4L33.4991 122.2L28.0391 117.4" stroke="white" stroke-width="3" stroke-miterlimit="10" stroke-linecap="round"/>
<rect x="13" y="153" width="40" height="40" rx="10" fill="#FFC961"/>
<path fill-rule="evenodd" clip-rule="evenodd" d="M27.0272 180.668H30.3326L32.9768 171.544H33.097L35.7413 180.668H39.0267L41.2876 172.708H45.4758V169.431H42.2183L43.2335 165.857H39.4674L37.2237 175.697H37.1236L34.5794 165.857H31.4744L28.9503 175.676H28.8301L26.6065 165.857H22.8404L23.8507 169.431H20.8594V172.708H24.777L27.0272 180.668Z" fill="white"/>
<path d="M16 208C16 205.239 18.2386 203 21 203H45C47.7614 203 50 205.239 50 208V236C50 238.761 47.7614 241 45 241H21C18.2386 241 16 238.761 16 236V208Z" fill="#4C92F1"/>
<path d="M32.1602 216.838V203H44.249V216.838C44.249 217.684 43.2648 218.148 42.6126 217.61L38.5228 214.235C38.3381 214.083 38.0711 214.083 37.8864 214.235L33.7966 217.61C33.1444 218.148 32.1602 217.684 32.1602 216.838Z" fill="white"/>
<rect x="14" y="251" width="38" height="28" rx="5" fill="#04CFDC"/>
<path d="M24.3518 286.722L36.4549 274.342H22.6367V286.023C22.6367 286.919 23.7251 287.363 24.3518 286.722Z" fill="#04CFDC"/>
<path d="M35.668 265C35.668 266.381 34.5487 267.5 33.168 267.5C31.7873 267.5 30.668 266.381 30.668 265C30.668 263.619 31.7873 262.5 33.168 262.5C34.5487 262.5 35.668 263.619 35.668 265Z" fill="white"/>
<path d="M45 265C45 266.381 43.8807 267.5 42.5 267.5C41.1193 267.5 40 266.381 40 265C40 263.619 41.1193 262.5 42.5 262.5C43.8807 262.5 45 263.619 45 265Z" fill="white"/>
<path d="M26.3359 265C26.3359 266.381 25.2166 267.5 23.8359 267.5C22.4552 267.5 21.3359 266.381 21.3359 265C21.3359 263.619 22.4552 262.5 23.8359 262.5C25.2166 262.5 26.3359 263.619 26.3359 265Z" fill="white"/>
<rect x="183" y="29" width="50" height="38" rx="6" fill="#04CFDC"/>
<path d="M197.447 78.3892L215 60H194V77.0082C194 78.8125 196.201 79.6943 197.447 78.3892Z" fill="#04CFDC"/>
<path d="M211.43 48.25C211.43 50.0449 209.975 51.5 208.18 51.5C206.385 51.5 204.93 50.0449 204.93 48.25C204.93 46.4551 206.385 45 208.18 45C209.975 45 211.43 46.4551 211.43 48.25Z" fill="white"/>
<path d="M223.711 48.25C223.711 50.0449 222.256 51.5 220.461 51.5C218.666 51.5 217.211 50.0449 217.211 48.25C217.211 46.4551 218.666 45 220.461 45C222.256 45 223.711 46.4551 223.711 48.25Z" fill="white"/>
<path d="M199.148 48.25C199.148 50.0449 197.693 51.5 195.898 51.5C194.104 51.5 192.648 50.0449 192.648 48.25C192.648 46.4551 194.104 45 195.898 45C197.693 45 199.148 46.4551 199.148 48.25Z" fill="white"/>
<path d="M128 35C128 31.6863 130.686 29 134 29H167C170.314 29 173 31.6863 173 35V73C173 76.3137 170.314 79 167 79H134C130.686 79 128 76.3137 128 73V35Z" fill="#4C92F1"/>
<path d="M149.391 47.8863V29H165.391V47.8863C165.391 48.7305 164.409 49.1949 163.756 48.6594L157.708 43.6976C157.523 43.5464 157.258 43.5464 157.074 43.6976L151.025 48.6594C150.372 49.1949 149.391 48.7305 149.391 47.8863Z" fill="white"/>
<rect x="68" y="29" width="50" height="50" rx="11" fill="#FFC961"/>
<path fill-rule="evenodd" clip-rule="evenodd" d="M85.5239 63.5847H89.6556L92.9609 52.1802H93.1112L96.4165 63.5847H100.523L103.349 53.6347H108.587V49.5388H104.513L105.782 45.0715H101.074L98.2695 57.371H98.1443L94.9642 45.0715H91.0829L87.9278 57.3455H87.7775L84.998 45.0715H80.2904L81.5532 49.5388H77.8164V53.6347H82.7111L85.5239 63.5847Z" fill="white"/>
<path d="M45.2557 62.5186C55.0556 58.6262 59.7515 47.7543 55.7442 38.2354C51.737 28.7165 40.5441 24.1553 30.7442 28.0476C20.9444 31.94 16.2485 42.8119 20.2557 52.3308C24.263 61.8497 35.4559 66.4109 45.2557 62.5186Z" fill="#FFD15A"/>
<path d="M54.6797 54.7932H21.3398L28.3863 64.4484H47.6332L54.6797 54.7932Z" fill="#FFD15A"/>
<path d="M38 63L38 55" stroke="white" stroke-width="4" stroke-miterlimit="10" stroke-linecap="square"/>
<path d="M28.4141 64.4485H47.5845V72.3313C47.5845 74.2657 45.9656 75.8278 43.9847 75.8278H32.0138C30.0222 75.8278 28.4141 74.2554 28.4141 72.3313V64.4485Z" fill="#2F83F7"/>
<path d="M38.0009 81C40.9419 81 43.326 78.6842 43.326 75.8276C43.326 72.9709 40.9419 70.6552 38.0009 70.6552C35.0599 70.6552 32.6758 72.9709 32.6758 75.8276C32.6758 78.6842 35.0599 81 38.0009 81Z" fill="#2F83F7"/>
<path d="M45 49L38 55L31 49" stroke="white" stroke-width="4" stroke-miterlimit="10" stroke-linecap="round"/>
</svg>
