<svg width="55" height="55" viewBox="0 0 55 55" fill="none" xmlns="http://www.w3.org/2000/svg">
<rect width="55" height="55" rx="14" fill="#00D5E2"/>
<path d="M25.1276 15.2219C25.1276 15.2219 25.124 15.175 25.124 15.1066C25.16 14.7752 25.6394 14.75 25.6394 14.75H28.2096C28.7611 14.75 28.2709 14.2385 28.2709 14.2385C28.2709 14.2385 27.9645 13.9791 27.6004 13.673C27.5211 13.5793 27.4202 13.4785 27.2832 13.3668C26.5514 12.7616 26.1874 12.5095 26.1874 12.5095C26.1874 12.5095 25.1095 11.7062 23.9452 12.1169C22.7773 12.5275 17.4747 14.4906 17.4747 14.4906C17.4747 14.4906 16.2599 14.8905 16.2599 16.2376V29.2843H25.1312V15.2219H25.1276Z" fill="white"/>
<path d="M42.8794 22.952C42.4685 21.785 40.5003 16.4864 40.5003 16.4864C40.5003 16.4864 40.1002 15.2725 38.752 15.2725H25.6993V24.1335H39.7758C39.7758 24.1335 39.8479 24.1263 39.9488 24.1335C40.2372 24.2056 40.266 24.6378 40.266 24.6378V27.2061C40.266 27.7572 40.7779 27.2673 40.7779 27.2673C40.7779 27.2673 41.0446 26.9539 41.3546 26.5829C41.4412 26.5073 41.5313 26.4136 41.6322 26.2911C42.2378 25.5599 42.4901 25.1925 42.4901 25.1925C42.4901 25.1925 43.294 24.1191 42.883 22.952H42.8794Z" fill="white"/>
<path d="M30.8583 38.7818C30.8583 38.7818 30.8655 38.8683 30.8583 38.9764C30.7826 39.2609 30.3573 39.2897 30.3573 39.2897H27.7871C27.2392 39.2897 27.7258 39.7976 27.7258 39.7976C27.7258 39.7976 28.1368 40.147 28.5801 40.5144C28.6234 40.554 28.6558 40.5901 28.7063 40.6297C29.4345 41.2384 29.8021 41.4906 29.8021 41.4906C29.8021 41.4906 30.88 42.2938 32.0443 41.8832C33.2158 41.4726 38.5148 39.5095 38.5148 39.5095C38.5148 39.5095 39.7331 39.106 39.7331 37.7589V24.7158H30.8619V38.7818H30.8583Z" fill="white"/>
<path d="M30.2985 29.8553H16.222C16.222 29.8553 16.1355 29.8625 16.0202 29.8553C15.7426 29.776 15.7138 29.3546 15.7138 29.3546V26.7863C15.7138 26.2352 15.2019 26.7251 15.2019 26.7251C15.2019 26.7251 14.8594 27.1285 14.4954 27.5643C14.4521 27.6112 14.4125 27.6472 14.3692 27.7012C13.7672 28.4324 13.5113 28.7998 13.5113 28.7998C13.5113 28.7998 12.7038 29.8769 13.1184 31.0439C13.5293 32.211 15.4975 37.506 15.4975 37.506C15.4975 37.506 15.8976 38.7235 17.2458 38.7235H30.3057V29.8589L30.2985 29.8553Z" fill="white"/>
</svg>
