<svg width="55" height="55" viewBox="0 0 55 55" fill="none" xmlns="http://www.w3.org/2000/svg">
<rect width="55" height="55" rx="14" fill="#254FFE"/>
<path d="M33.6444 12C31.3791 12 29.3163 12.8712 27.7652 14.2965H18.1856C16.9799 14.2965 16 15.2812 16 16.4929V38.7335C16 39.9452 16.9799 41 18.1856 41H29.984C30.0172 40.99 30.0504 40.9833 30.0836 40.97C31.1897 40.5794 36.0825 38.6401 36.0825 38.6401C36.0825 38.6401 37.1753 38.2863 37.1753 37.4518V28.7798C40.2312 27.4179 42.3636 24.3437 42.3636 20.7654C42.3636 15.9254 38.4574 12 33.6411 12H33.6444ZM19.9394 24.2335C19.7767 24.07 19.7767 23.8063 19.9394 23.6427C20.0192 23.5626 20.1254 23.5192 20.2317 23.5192C20.338 23.5192 20.4443 23.5593 20.524 23.6427L22.0487 25.1748L23.5733 23.6427C23.653 23.5626 23.7593 23.5192 23.8656 23.5192C23.9719 23.5192 24.0782 23.5593 24.1579 23.6427C24.3206 23.8063 24.3206 24.07 24.1579 24.2335L22.6333 25.7657L24.1579 27.2978C24.3206 27.4613 24.3206 27.725 24.1579 27.8886C24.0782 27.9687 23.9719 28.0121 23.8656 28.0121C23.7593 28.0121 23.653 27.972 23.5733 27.8886L22.0487 26.3565L20.524 27.8886C20.4443 27.9687 20.338 28.0121 20.2317 28.0121C20.1254 28.0121 20.0192 27.972 19.9394 27.8886C19.7767 27.725 19.7767 27.4613 19.9394 27.2978L21.4641 25.7657L19.9394 24.2335ZM24.5532 34.4076H22.4672V36.5272C22.4672 36.6407 22.4207 36.7408 22.3443 36.8142C22.2679 36.8877 22.1649 36.9344 22.052 36.9344C21.939 36.9344 21.8328 36.8877 21.7597 36.8142C21.6833 36.7408 21.6368 36.6407 21.6368 36.5272V34.4076H19.5508C19.3283 34.4076 19.1456 34.2307 19.1456 34.0137C19.1456 33.7967 19.3249 33.6198 19.5508 33.6198H21.6368V31.5002C21.6368 31.2766 21.8228 31.093 22.052 31.093C22.2812 31.093 22.4672 31.2733 22.4672 31.5002V33.6198H24.5532C24.7757 33.6198 24.9584 33.7967 24.9584 34.0137C24.9584 34.2307 24.779 34.4076 24.5532 34.4076ZM33.4816 34.4309H28.476C28.2534 34.4309 28.0707 34.244 28.0707 34.0137C28.0707 33.7834 28.2501 33.5965 28.476 33.5965H33.4816C33.7042 33.5965 33.8869 33.7834 33.8869 34.0137C33.8869 34.244 33.7075 34.4309 33.4816 34.4309Z" fill="white"/>
<path d="M33.5739 28.6971C37.9419 28.6971 41.4829 25.1561 41.4829 20.788C41.4829 16.4199 37.9419 12.8789 33.5739 12.8789C29.2058 12.8789 25.6648 16.4199 25.6648 20.788C25.6648 25.1561 29.2058 28.6971 33.5739 28.6971Z" fill="#2562FE"/>
<path d="M38.3949 20.2975H37.2118L37.7853 17.7945C37.8182 17.4714 37.5612 17.2793 37.3173 17.2793H36.6582C36.5297 17.2793 36.4209 17.3647 36.3946 17.4805L35.9497 19.5963L35.5246 21.6176C35.5213 21.6389 35.485 21.6389 35.4817 21.6176L34.9578 19.5933L34.4074 17.4653C34.3778 17.3525 34.269 17.2732 34.1471 17.2732H32.9706C32.8454 17.2732 32.7366 17.3525 32.7103 17.4653L31.6458 21.6176C31.6392 21.6389 31.6063 21.6389 31.603 21.6176L30.733 17.4775C30.7099 17.3616 30.5979 17.2762 30.4693 17.2762H29.8201C29.5532 17.2762 29.3061 17.4805 29.3621 17.7854L29.4082 18.0293L29.9256 20.2945H28.7491C28.5053 20.2945 28.3042 20.4865 28.3042 20.7243C28.3042 20.9621 28.502 21.1481 28.7458 21.1481H30.1233L30.7626 23.9529C30.8088 24.1572 31.0032 24.3035 31.2273 24.3035H31.7084C31.9128 24.3035 32.0841 24.2608 32.2159 24.1785C32.3576 24.087 32.4565 23.9346 32.5125 23.712L33.544 19.5994C33.5506 19.578 33.5836 19.578 33.5868 19.5994L33.8208 20.5262L34.7205 24.0962C34.7337 24.148 34.7633 24.1937 34.8029 24.2303C35.3928 24.0291 36.1507 23.77 36.1507 23.77C36.1507 23.77 36.4308 23.6846 36.5033 23.4133C36.5033 23.4072 36.5066 23.398 36.5099 23.3889L37.024 21.1511H38.4048C38.6487 21.1511 38.8497 20.9591 38.8497 20.7243C38.8497 20.4896 38.652 20.2975 38.4048 20.2975H38.3949Z" fill="white"/>
</svg>
