<svg width="55" height="55" viewBox="0 0 55 55" fill="none" xmlns="http://www.w3.org/2000/svg">
<rect width="55" height="55" rx="14" fill="#07B783"/>
<path d="M14.1863 20.5174C13.7249 20.6946 13.3596 21.0415 13.1603 21.4917C12.961 21.942 12.9462 22.4476 13.1234 22.9089L16.2825 31.1351L14.308 20.4731L14.1899 20.5174H14.1863Z" fill="white"/>
<path d="M15.1157 19.5348C15.1157 19.6787 15.123 19.8264 15.1526 19.9777L15.1636 20.0294L15.1821 20.1216L16.4147 26.7793L17.8688 34.6254L17.8983 24.0631L17.8614 17.2651L17.1491 17.398L16.8945 17.446C16.8207 17.4607 16.7469 17.4755 16.6768 17.4976C16.4627 17.5604 16.2671 17.6526 16.09 17.7707C15.9128 17.8888 15.7578 18.0291 15.6213 18.1878C15.5327 18.2911 15.4589 18.4055 15.3925 18.5236C15.2227 18.8299 15.1267 19.1768 15.1194 19.5385L15.1157 19.5348Z" fill="white"/>
<path d="M31.3424 14.7959C31.3018 14.7959 31.2649 14.7959 31.2243 14.7996C31.2723 14.7996 31.3165 14.7959 31.3645 14.7959C31.3571 14.7959 31.3498 14.7959 31.3424 14.7959Z" fill="white"/>
<path d="M18.767 17.0699L18.8039 24.0339L18.7634 38.8957C18.7634 38.9474 18.7707 38.999 18.7744 39.047C18.7781 39.0987 18.7781 39.1504 18.7855 39.1983C18.7855 39.2094 18.7855 39.2205 18.7892 39.2352C18.8003 39.3164 18.8187 39.3976 18.8372 39.4788C18.8372 39.4936 18.8409 39.5046 18.8445 39.5194C18.8704 39.6227 18.9073 39.7224 18.9479 39.8183C18.959 39.8479 18.9737 39.8774 18.9885 39.9106C19.018 39.977 19.0512 40.0435 19.0881 40.1099C19.1066 40.1394 19.1213 40.1726 19.1398 40.2022C19.1915 40.287 19.2468 40.3682 19.3059 40.4457C19.3096 40.4494 19.3132 40.4531 19.3169 40.4605C19.3243 40.4679 19.328 40.4716 19.3354 40.4789C19.4018 40.5601 19.4719 40.6413 19.5494 40.7151C19.5974 40.7631 19.6491 40.8074 19.7007 40.848L19.7118 40.8554C19.8373 40.955 19.9702 41.0436 20.1141 41.1174L20.1436 41.1322C20.2248 41.1728 20.306 41.2097 20.3909 41.2392L20.4056 41.2466C20.6492 41.3352 20.9112 41.3868 21.188 41.3868H24.8011L18.767 17.0699ZM24.8011 41.3905H33.0457C33.0826 41.3794 33.1196 41.3721 33.1565 41.3573C33.3484 41.2909 33.6436 41.1802 34.0053 41.0473C34.223 40.9661 34.4629 40.8738 34.7176 40.7779C34.8024 40.7447 34.891 40.7115 34.9796 40.6782C35.1567 40.6118 35.3376 40.5417 35.5258 40.4679C35.618 40.431 35.714 40.3941 35.8063 40.3609C35.9945 40.287 36.1864 40.2132 36.3783 40.1394C36.4743 40.1025 36.5702 40.0656 36.6662 40.0287C36.8581 39.9549 37.0463 39.8811 37.2308 39.811C37.4153 39.7371 37.5999 39.667 37.777 39.6006C38.2162 39.4308 38.6221 39.2721 38.9506 39.143C39.4784 38.9363 39.8179 38.8034 39.8179 38.8034C39.8179 38.8034 41.0284 38.4159 41.0173 37.5376L41.0284 18.5756V16.2911C41.0284 15.1249 40.091 14.0694 38.9617 13.8259C38.7993 13.789 38.6332 13.7705 38.4671 13.7705H21.188C21.1032 13.7705 21.022 13.7742 20.9408 13.7816C20.9112 13.7816 20.8854 13.789 20.8559 13.7927C20.8042 13.8 20.7526 13.8074 20.7009 13.8148C20.664 13.8222 20.6271 13.8332 20.5865 13.8443C20.5459 13.8554 20.509 13.8628 20.4684 13.8738C20.4241 13.8886 20.3835 13.9034 20.3392 13.9218C20.3097 13.9329 20.2765 13.944 20.2469 13.955C20.199 13.9735 20.151 13.9993 20.1067 14.0215C20.0846 14.0325 20.0624 14.0436 20.0403 14.0547C19.9886 14.0805 19.9406 14.1137 19.8927 14.1433C19.8779 14.1543 19.8594 14.1617 19.8447 14.1728C19.7893 14.2097 19.7413 14.2466 19.6897 14.2872C19.6786 14.2946 19.6712 14.3019 19.6602 14.3093C19.6048 14.3536 19.5531 14.4016 19.5051 14.4496C19.5015 14.4533 19.4941 14.4569 19.4904 14.4606C19.4387 14.5123 19.3871 14.5677 19.3391 14.6267C18.9959 15.0364 18.7818 15.5604 18.7707 16.1288C18.7707 16.1288 18.7707 16.1583 18.7707 16.1767V16.3613C18.7707 16.3613 18.7707 16.3723 18.7707 16.3797V17.0735L24.8011 41.3905ZM26.233 21.7347C26.233 19.7455 27.8605 18.1217 29.846 18.1217H33.6141V21.9081C33.6141 23.8973 31.9866 25.5212 30.001 25.5212H29.8903C27.879 25.5212 26.233 23.8752 26.233 21.8639V21.731V21.7347Z" fill="white"/>
<path d="M21.6716 39.7597C22.3768 39.7597 22.9485 39.188 22.9485 38.4827C22.9485 37.7775 22.3768 37.2058 21.6716 37.2058C20.9664 37.2058 20.3947 37.7775 20.3947 38.4827C20.3947 39.188 20.9664 39.7597 21.6716 39.7597Z" fill="#07B783"/>
<path d="M36.3806 32.1448C36.3732 29.0632 33.4836 26.5647 29.9185 26.5647C26.3534 26.5647 23.4527 29.0669 23.4527 32.1559H23.4674V36.2782H36.3843V32.1448H36.3806Z" fill="#07B783"/>
</svg>
